<svg width="80" height="62" viewBox="0 0 80 62" fill="none" xmlns="http://www.w3.org/2000/svg">
<path d="M10.3354 0.0418017H56.3268C61.5905 0.0418017 65.8704 4.31395 65.8704 9.57802V17.6056H71.1532C75.5938 17.6056 79.1999 21.2232 79.1999 25.6523V45.3977C79.1999 49.8383 75.5938 53.4444 71.1532 53.4444H65.0282V58.8727C65.0282 60.1283 64.2741 61.2461 63.118 61.7246C62.7351 61.8816 62.3332 61.9581 61.9313 61.9581C61.1388 61.9581 60.3426 61.6442 59.7569 61.0548L52.1428 53.4406H33.691C30.9194 53.4406 28.4694 52.0204 27.0186 49.8728L24.0977 52.8013C23.4393 53.4597 22.5588 53.8119 21.6592 53.8119C21.219 53.8119 20.7673 53.7239 20.3347 53.5478C19.0407 53.008 18.1986 51.7562 18.1986 50.3512V43.3534H10.3395C5.08733 43.3534 0.803268 39.0697 0.803268 33.8172V9.57361C0.803268 4.30995 5.08692 0.0373917 10.3395 0.0373917L10.3354 0.0418017ZM33.6872 50.5004H52.7474C53.1378 50.5004 53.513 50.6573 53.7848 50.9329L61.8315 58.9682C61.8315 58.9682 61.9004 59.0448 61.9884 59.0065C62.088 58.9682 62.088 58.907 62.088 58.8687V51.9704C62.088 51.1588 62.7464 50.5004 63.558 50.5004H71.153C73.9743 50.5004 76.2597 48.2073 76.2597 45.3937V25.6483C76.2597 22.8347 73.978 20.5416 71.153 20.5416H65.8701V33.8214C65.8701 39.0736 61.5864 43.3576 56.3265 43.3576H33.5415L29.1813 47.7179C30.0234 49.364 31.7193 50.5009 33.6908 50.5009L33.6872 50.5004ZM3.73918 33.8208C3.73918 37.4575 6.69829 40.4167 10.3351 40.4167H19.6639C20.4754 40.4167 21.1339 41.0751 21.1339 41.8867V50.3547C21.1339 50.6571 21.3406 50.7873 21.4554 50.8332C21.5741 50.883 21.7999 50.9327 22.0143 50.7145L31.8911 40.8459C32.1667 40.5703 32.538 40.4133 32.9285 40.4133H56.3219C59.9663 40.4133 62.9254 37.4542 62.9254 33.8175V9.57389C62.9254 5.93719 59.9663 2.978 56.3219 2.978H10.3305C6.69382 2.978 3.73463 5.93711 3.73463 9.57389V33.8175L3.73918 33.8208Z" fill="black"/>
<path d="M43.9086 14.0242L46.014 13.7218L46.9557 11.8115C47.2007 11.3101 47.7099 11 48.2688 11C48.8277 11 49.3483 11.3139 49.5933 11.8115L50.535 13.7218L52.6405 14.0242C53.1879 14.1008 53.6511 14.4951 53.8272 15.0233C53.9956 15.5631 53.8578 16.1412 53.4558 16.5316L51.9284 18.0132L52.2921 20.111C52.3916 20.6699 52.1543 21.2173 51.7026 21.5504C51.4461 21.738 51.1437 21.8337 50.8412 21.8337C50.6077 21.8337 50.3704 21.7762 50.156 21.6576L48.2726 20.6661L46.3892 21.6576C45.8992 21.9217 45.2905 21.872 44.8426 21.5504C44.3909 21.2173 44.165 20.6699 44.2645 20.111L44.6167 18.0132L43.097 16.5316C42.695 16.1412 42.5496 15.5632 42.7257 15.0233C42.9018 14.4951 43.3611 14.1008 43.9124 14.0242L43.9086 14.0242Z" fill="black"/>
<path d="M28.975 19.4654L31.0729 19.163L32.0146 17.2527C32.2596 16.7512 32.7802 16.4412 33.3391 16.4412C33.898 16.4412 34.4072 16.7551 34.6522 17.2527L35.5939 19.163L37.6993 19.4654C38.2467 19.542 38.7099 19.9363 38.886 20.4645C39.0621 21.0043 38.9166 21.5824 38.5147 21.9728L36.9949 23.4543L37.3471 25.5522C37.4467 26.1111 37.2208 26.6585 36.7691 26.9916C36.3097 27.3246 35.7125 27.3629 35.2225 27.0987L33.3391 26.1072L31.4557 27.0987C31.2413 27.2174 31.004 27.2748 30.7704 27.2748C30.468 27.2748 30.1618 27.1753 29.9091 26.9915C29.4574 26.6585 29.2239 26.1111 29.3196 25.5522L29.6832 23.4543L28.1558 21.9728C27.7539 21.5823 27.6161 21.0043 27.7845 20.4645C27.9606 19.9362 28.42 19.5419 28.9789 19.4654L28.975 19.4654Z" fill="black"/>
<path d="M14.03 19.4654L16.1354 19.163L17.0771 17.2527C17.3221 16.7512 17.8313 16.4412 18.3902 16.4412C18.9491 16.4412 19.4582 16.7551 19.7147 17.2527L20.6564 19.163L22.7543 19.4654C23.3132 19.542 23.7726 19.9363 23.9487 20.4645C24.1171 21.0043 23.9678 21.5824 23.5773 21.9728L22.0499 23.4543L22.4136 25.5522C22.5131 26.1111 22.2758 26.6585 21.824 26.9916C21.3723 27.3246 20.7751 27.3629 20.2774 27.0987L18.394 26.1072L16.5106 27.0987C16.2963 27.2174 16.0589 27.2748 15.8254 27.2748C15.523 27.2748 15.2167 27.1753 14.9641 26.9915C14.5124 26.6585 14.2865 26.1111 14.386 25.5522L14.7382 23.4543L13.2185 21.9728C12.8165 21.5823 12.6711 21.0043 12.8472 20.4645C13.0232 19.9362 13.4826 19.5419 14.0339 19.4654L14.03 19.4654Z" fill="black"/>
</svg>
