<svg width="70" height="54" viewBox="0 0 70 54" fill="none" xmlns="http://www.w3.org/2000/svg">
<path d="M68.8182 10.2508L49.1129 21.0201L43.312 48.3521L43.3152 48.3553C42.7515 51.0363 40.4004 52.9678 37.6585 52.9999L32.226 53.0671V53.0703C31.2843 53.0703 30.5188 52.3048 30.5188 51.3599C30.6469 46.6193 30.8935 37.3591 31.0729 30.3891L12.2799 40.0494L12.2831 40.0526C12.0428 40.1743 11.7738 40.2383 11.5047 40.2383C10.8512 40.2415 10.2555 39.87 9.96719 39.2838L9.27531 37.8744C8.36566 36.0038 8.2663 33.8417 8.99344 31.8942C9.30735 31.0613 9.76861 30.2926 10.3516 29.6232L1.3671 26.0421C0.912255 25.8595 0.559942 25.4912 0.396557 25.0299C0.233199 24.5719 0.274842 24.0626 0.511869 23.6333C2.98786 19.0977 8.14197 16.7146 13.2055 17.7652L20.2172 19.1906L54.4686 2.96005V2.96325C60.01 0.304673 66.6565 2.51161 69.5108 7.95049C69.9496 8.77691 69.6389 9.80191 68.8189 10.2503L68.8182 10.2508ZM9.76177 7.79724L20.1812 15.4178L35.3444 8.20724L20.0972 1.375C18.233 0.551789 16.0805 0.740785 14.3892 1.87789L9.81199 5.00414C9.35395 5.31805 9.0785 5.83057 9.06887 6.38468C9.05606 6.93882 9.31551 7.46093 9.76074 7.79085L9.76177 7.79724Z" fill="black"/>
</svg>
