<svg width="72" height="72" viewBox="0 0 72 72" fill="none" xmlns="http://www.w3.org/2000/svg">
<path d="M24.75 16.8756H29.25C29.8715 16.8756 30.375 16.3722 30.375 15.7506V11.2506C30.375 10.6291 29.8716 10.1256 29.25 10.1256H24.75C24.1285 10.1256 23.625 10.629 23.625 11.2506V15.7506C23.625 16.3722 24.1284 16.8756 24.75 16.8756ZM25.875 12.3756H28.125V14.6256H25.875V12.3756Z" fill="black"/>
<path d="M33.75 16.8756H38.25C38.8715 16.8756 39.375 16.3722 39.375 15.7506V11.2506C39.375 10.6291 38.8716 10.1256 38.25 10.1256H33.75C33.1285 10.1256 32.625 10.629 32.625 11.2506V15.7506C32.625 16.3722 33.1284 16.8756 33.75 16.8756ZM34.875 12.3756H37.125V14.6256H34.875V12.3756Z" fill="black"/>
<path d="M24.75 25.8756H29.25C29.8715 25.8756 30.375 25.3722 30.375 24.7506V20.2506C30.375 19.6291 29.8716 19.1256 29.25 19.1256H24.75C24.1285 19.1256 23.625 19.629 23.625 20.2506V24.7506C23.625 25.3722 24.1284 25.8756 24.75 25.8756ZM25.875 21.3756H28.125V23.6256H25.875V21.3756Z" fill="black"/>
<path d="M33.75 25.8756H38.25C38.8715 25.8756 39.375 25.3722 39.375 24.7506V20.2506C39.375 19.6291 38.8716 19.1256 38.25 19.1256H33.75C33.1285 19.1256 32.625 19.629 32.625 20.2506V24.7506C32.625 25.3722 33.1284 25.8756 33.75 25.8756ZM34.875 21.3756H37.125V23.6256H34.875V21.3756Z" fill="black"/>
<path d="M24.75 34.8756H29.25C29.8715 34.8756 30.375 34.3722 30.375 33.7506V29.2506C30.375 28.6291 29.8716 28.1256 29.25 28.1256H24.75C24.1285 28.1256 23.625 28.629 23.625 29.2506V33.7506C23.625 34.3722 24.1284 34.8756 24.75 34.8756ZM25.875 30.3756H28.125V32.6256H25.875V30.3756Z" fill="black"/>
<path d="M33.75 34.8756H38.25C38.8715 34.8756 39.375 34.3722 39.375 33.7506V29.2506C39.375 28.6291 38.8716 28.1256 38.25 28.1256H33.75C33.1285 28.1256 32.625 28.629 32.625 29.2506V33.7506C32.625 34.3722 33.1284 34.8756 33.75 34.8756ZM34.875 30.3756H37.125V32.6256H34.875V30.3756Z" fill="black"/>
<path d="M24.75 43.8756H29.25C29.8715 43.8756 30.375 43.3722 30.375 42.7506V38.2506C30.375 37.6291 29.8716 37.1256 29.25 37.1256H24.75C24.1285 37.1256 23.625 37.629 23.625 38.2506V42.7506C23.625 43.3722 24.1284 43.8756 24.75 43.8756ZM25.875 39.3756H28.125V41.6256H25.875V39.3756Z" fill="black"/>
<path d="M42.75 16.8756H47.25C47.8715 16.8756 48.375 16.3722 48.375 15.7506V11.2506C48.375 10.6291 47.8716 10.1256 47.25 10.1256H42.75C42.1285 10.1256 41.625 10.629 41.625 11.2506V15.7506C41.625 16.3722 42.1284 16.8756 42.75 16.8756ZM43.875 12.3756H46.125V14.6256H43.875V12.3756Z" fill="black"/>
<path d="M42.75 25.8756H47.25C47.8715 25.8756 48.375 25.3722 48.375 24.7506V20.2506C48.375 19.6291 47.8716 19.1256 47.25 19.1256H42.75C42.1285 19.1256 41.625 19.629 41.625 20.2506V24.7506C41.625 25.3722 42.1284 25.8756 42.75 25.8756ZM43.875 21.3756H46.125V23.6256H43.875V21.3756Z" fill="black"/>
<path d="M42.75 34.8756H47.25C47.8715 34.8756 48.375 34.3722 48.375 33.7506V29.2506C48.375 28.6291 47.8716 28.1256 47.25 28.1256H42.75C42.1285 28.1256 41.625 28.629 41.625 29.2506V33.7506C41.625 34.3722 42.1284 34.8756 42.75 34.8756ZM43.875 30.3756H46.125V32.6256H43.875V30.3756Z" fill="black"/>
<path d="M42.75 43.8756H47.25C47.8715 43.8756 48.375 43.3722 48.375 42.7506V38.2506C48.375 37.6291 47.8716 37.1256 47.25 37.1256H42.75C42.1285 37.1256 41.625 37.629 41.625 38.2506V42.7506C41.625 43.3722 42.1284 43.8756 42.75 43.8756ZM43.875 39.3756H46.125V41.6256H43.875V39.3756Z" fill="black"/>
<path d="M33.75 43.8756H38.25C38.8715 43.8756 39.375 43.3722 39.375 42.7506V38.2506C39.375 37.6291 38.8716 37.1256 38.25 37.1256H33.75C33.1285 37.1256 32.625 37.629 32.625 38.2506V42.7506C32.625 43.3722 33.1284 43.8756 33.75 43.8756ZM34.875 39.3756H37.125V41.6256H34.875V39.3756Z" fill="black"/>
<path d="M30.3756 51.75V47.25C30.3756 46.6285 29.8722 46.125 29.2506 46.125H24.7506C24.1291 46.125 23.6256 46.6284 23.6256 47.25V51.75C23.6256 52.3715 24.129 52.875 24.7506 52.875H29.2506C29.8722 52.875 30.3756 52.3716 30.3756 51.75ZM28.1256 50.625H25.8756V48.375H28.1256V50.625Z" fill="black"/>
<path d="M42.75 52.8756H47.25C47.8715 52.8756 48.375 52.3722 48.375 51.7506V47.2506C48.375 46.6291 47.8716 46.1256 47.25 46.1256H42.75C42.1285 46.1256 41.625 46.629 41.625 47.2506V51.7506C41.625 52.3722 42.1284 52.8756 42.75 52.8756ZM43.875 48.3756H46.125V50.6256H43.875V48.3756Z" fill="black"/>
<path d="M33.75 52.8756H38.25C38.8715 52.8756 39.375 52.3722 39.375 51.7506V47.2506C39.375 46.6291 38.8716 46.1256 38.25 46.1256H33.75C33.1285 46.1256 32.625 46.629 32.625 47.2506V51.7506C32.625 52.3722 33.1284 52.8756 33.75 52.8756ZM34.875 48.3756H37.125V50.6256H34.875V48.3756Z" fill="black"/>
<path d="M64 66H60.0001V60.86C61.3351 60.4775 62.5276 59.325 63.43 57.52C64.4425 55.495 65 52.825 65 50C65 47.1775 64.4425 44.5051 63.43 42.48C62.3075 40.235 60.7351 39 59.0001 39C57.2652 39 55.6926 40.235 54.5702 42.48C53.5578 44.505 53.0002 47.175 53.0002 50C53.0002 52.8225 53.5577 55.4949 54.5702 57.52C55.4727 59.325 56.6652 60.475 58.0001 60.86V66H50.9997V10H51.9997C52.5522 10 52.9997 9.5525 52.9997 9V5C52.9997 4.44752 52.5522 4 51.9997 4H20.0003C19.4478 4 19.0003 4.4475 19.0003 5V9C19.0003 9.55248 19.4478 10 20.0003 10H21.0003V66H13.9999V60.86C15.3348 60.4775 16.5273 59.325 17.4298 57.52C18.4422 55.495 18.9998 52.825 18.9998 50C18.9998 47.1775 18.4423 44.5051 17.4298 42.48C16.3073 40.235 14.7348 39 12.9999 39C11.2649 39 9.69243 40.235 8.57 42.48C7.55754 44.505 7 47.175 7 50C7 52.8225 7.55748 55.4949 8.57 57.52C9.47249 59.325 10.6649 60.475 11.9999 60.86V66H7.99998C7.44751 66 7 66.4475 7 67C7 67.5525 7.44749 68 7.99998 68H63.999C64.5514 68 64.9989 67.5525 64.9989 67C64.9989 66.4475 64.5514 66 63.999 66H64ZM55.0007 50C55.0007 44.695 57.1082 41.0005 59.0006 41.0005C60.8931 41.0005 63.0006 44.6955 63.0006 50C63.0006 55.3048 60.8931 58.9995 59.0006 58.9995C57.1082 58.9995 55.0007 55.3045 55.0007 50ZM9.00156 50C9.00156 44.695 11.109 41.0005 13.0015 41.0005C14.8939 41.0005 17.0014 44.6955 17.0014 50C17.0014 55.3048 14.8939 58.9995 13.0015 58.9995C11.109 58.9995 9.00156 55.3045 9.00156 50ZM21.0013 6H51.0008V8H21.0013V6ZM23.0013 10H49.0008V66H41.001V57.0005H42.001C42.5534 57.0005 43.0009 56.553 43.0009 56.0005C43.0009 55.4481 42.5534 55.0005 42.001 55.0005H30.0012C29.4487 55.0005 29.0012 55.448 29.0012 56.0005C29.0012 56.553 29.4487 57.0005 30.0012 57.0005H31.0012V66H23.0013V10ZM39.001 57.0005V66H33.0011V57.0005H39.001Z" fill="black"/>
</svg>
