<svg width="60" height="59" viewBox="0 0 60 59" fill="none" xmlns="http://www.w3.org/2000/svg">
<path d="M57.9383 49.1883H48.5633V47.0633H54.8133C55.2352 47.1258 55.6649 47.0008 55.9852 46.7235C56.3094 46.4422 56.4969 46.036 56.4969 45.6102C56.4969 45.1845 56.3094 44.7782 55.9852 44.497C55.6649 44.2196 55.2352 44.0946 54.8133 44.1571H48.5633V42.0321H53.2196C54.0321 42.0321 54.6883 41.3759 54.6883 40.5634C54.6883 39.7509 54.0321 39.0946 53.2196 39.0946H48.5008V24.5946C52.8602 23.9579 56.0907 20.2196 56.0907 15.813C56.0907 11.4063 52.8602 7.66848 48.5008 7.03131V7.12506C48.5008 3.31256 45.4071 0.218811 41.5946 0.218811H24.0004C22.5122 0.218811 21.0668 0.703186 19.8754 1.59381L18.1879 2.84381C16.4613 4.16023 15.4418 6.20314 15.4379 8.37506V15.7813H2.06293C1.25043 15.7813 0.594177 16.4376 0.594177 17.2501V46.8442C0.594177 53.0591 5.62934 58.0942 11.8442 58.0942H21.9383C24.9383 58.0786 27.8094 56.8637 29.9071 54.7231C32.0087 52.5786 33.1688 49.688 33.1258 46.688V17.0938C33.1258 16.7032 32.9696 16.3321 32.6962 16.0547C32.4188 15.7813 32.0477 15.625 31.6571 15.625H18.3454V8.2188C18.3688 6.9883 18.9548 5.83596 19.9392 5.0938L21.6267 3.8438C22.3142 3.33598 23.1462 3.06255 24.0017 3.06255H41.5958C42.674 3.04692 43.7169 3.46879 44.4747 4.23438C45.2365 5 45.6544 6.04688 45.6271 7.12505C41.3419 7.85161 38.2091 11.5625 38.2091 15.9067C38.2091 20.2509 41.3419 23.9614 45.6271 24.6884V51.9384C45.6271 52.7509 46.2833 53.4071 47.0958 53.4071C47.7911 53.4032 48.381 52.9032 48.5021 52.2196H57.8771C58.6896 52.2196 59.3458 51.5634 59.3458 50.7509C59.3458 49.9384 58.6896 49.2821 57.8771 49.2821L57.9383 49.1883ZM9.71918 36.4383C9.71918 37.2508 9.06293 37.9071 8.25043 37.9071C7.43793 37.9071 6.78168 37.2508 6.78168 36.4383V23.2825C6.78168 22.47 7.43793 21.8137 8.25043 21.8137C9.06293 21.8137 9.71918 22.47 9.71918 23.2825V36.4383ZM14.7504 28.8133C14.7504 29.6258 14.0942 30.2821 13.2817 30.2821C12.4692 30.2821 11.8129 29.6258 11.8129 28.8133V23.2821C11.8129 22.4696 12.4692 21.8133 13.2817 21.8133C14.0942 21.8133 14.7504 22.4696 14.7504 23.2821V28.8133ZM47.1254 21.8133C44.1449 21.7625 41.6528 19.5282 41.2738 16.5712C40.8988 13.6142 42.7504 10.829 45.6254 10.0321V14.3133C45.6254 15.1258 46.2817 15.7821 47.0942 15.7821C47.9067 15.7821 48.5629 15.1258 48.5629 14.3133V9.96958C51.5356 10.661 53.5161 13.4735 53.1645 16.5047C52.809 19.536 50.2388 21.8212 47.1879 21.8133H47.1254Z" fill="#1A1A1A"/>
</svg>
