<svg width="60" height="60" viewBox="0 0 60 60" fill="none" xmlns="http://www.w3.org/2000/svg">
<path d="M0.802492 57.3303C0.717492 57.7978 0.844992 58.2866 1.14249 58.6478C1.46124 59.0091 1.90749 59.2216 2.37499 59.2216H18.1L22.1375 56.3528L22.5625 56.0341L31.5725 49.5956L44.1525 40.6275L51.8025 35.1663L52.61 34.5925L54.65 33.1263L52.8225 23.3303C52.6737 22.5866 52.015 22.0341 51.25 22.0341H47.4037C47.2762 22.4166 47.1275 22.7991 46.9787 23.2028C46.7025 23.9041 46.405 24.5841 46.1075 25.2216C45.895 25.7103 45.6825 26.1778 45.47 26.6241C42.9837 31.7241 38.9035 38.2481 33.931 45.005C32.9322 46.365 31.5085 47.0875 29.9997 47.0875C28.491 47.0875 27.0672 46.365 26.1535 45.1325C24.3472 42.6888 22.4985 40.0113 20.8197 37.4406L12.8297 43.1141L5.75374 48.1716L5.24374 48.5328L2.03499 50.8278L0.802492 57.3303Z" fill="black"/>
<path d="M21.691 32.89C22.2647 33.825 22.8597 34.7387 23.4122 35.5887C25.941 39.4775 28.1722 42.4947 28.7247 43.2388C29.0222 43.6425 29.4897 43.8975 29.9997 43.8975C30.5097 43.8975 30.9772 43.6425 31.2747 43.2388C32.2735 41.8787 38.7757 33.1028 42.6007 25.2187C43.1319 24.135 43.5994 23.0512 44.0032 22.0312C44.8744 19.8212 45.4057 17.8025 45.4057 16.1878C45.4057 7.68778 38.4997 0.781815 29.9997 0.781815C21.4997 0.781815 14.5938 7.68778 14.5938 16.1878C14.5938 17.8028 15.125 19.8215 15.9963 22.0312C16.4 23.0512 16.8675 24.135 17.3988 25.2187C18.6525 27.79 20.1613 30.4462 21.6913 32.8897L21.691 32.89ZM30 8.45193C34.2713 8.45193 37.735 11.9157 37.735 16.1869C37.735 20.4582 34.2713 23.9219 30 23.9219C25.7288 23.9219 22.265 20.4582 22.265 16.1869C22.265 11.9157 25.7288 8.45193 30 8.45193Z" fill="black"/>
<path d="M34.5481 16.1881C34.5481 18.7009 32.5134 20.7356 30.0006 20.7356C27.4877 20.7356 25.4531 18.7009 25.4531 16.1881C25.4531 13.6752 27.4877 11.6406 30.0006 11.6406C32.5134 11.6406 34.5481 13.6752 34.5481 16.1881Z" fill="black"/>
<path d="M13.8919 25.219C13.5944 24.5815 13.3182 23.9015 13.0419 23.2003C12.8719 22.7965 12.7444 22.414 12.6169 22.0315H8.74943C7.98443 22.0315 7.32568 22.584 7.17693 23.3278L2.88443 46.2987L3.39443 45.9375L6.60318 43.6425L19.0772 34.7385C19.0347 34.6747 19.0135 34.6322 18.971 34.5685C17.2922 31.8697 15.7622 29.1285 14.5297 26.6204C14.3172 26.1741 14.1047 25.7066 13.8922 25.2179L13.8919 25.219Z" fill="black"/>
<path d="M43.536 44.981L34.5469 51.3985L23.5819 59.2185H57.6239C58.0914 59.2185 58.5376 59.006 58.8564 58.6447C59.1539 58.2835 59.2814 57.7947 59.1964 57.3272L55.3076 36.5872L54.5214 37.1397L52.4389 38.6272L43.536 44.981Z" fill="black"/>
</svg>
