<svg width="72" height="87" viewBox="0 0 72 87" fill="none" xmlns="http://www.w3.org/2000/svg">
<g id="Group">
<g id="Group_2">
<g id="Vector">
<path d="M47.6877 68.8918C46.1679 67.9367 44.1414 68.3852 43.178 69.9964C39.5487 76.0426 33.2455 79.6472 26.3188 79.6472C15.4224 79.6472 6.56094 70.5775 6.56094 59.4322C6.56094 50.3883 12.4991 42.3816 21.0035 39.957C22.7476 39.4587 23.7691 37.6066 23.2874 35.8127C22.814 34.0604 21.0284 32.9724 19.2511 33.479C7.91448 36.7014 0 47.3731 0 59.4327C0 74.2819 11.8097 86.3662 26.3187 86.3662C35.5372 86.3662 43.9256 81.5575 48.759 73.5103C49.7059 71.9323 49.2241 69.856 47.6793 68.8843L47.6877 68.8918Z" fill="black"/>
<path d="M47.6877 68.8918C46.1679 67.9367 44.1414 68.3852 43.178 69.9964C39.5487 76.0426 33.2455 79.6472 26.3188 79.6472C15.4224 79.6472 6.56094 70.5775 6.56094 59.4322C6.56094 50.3883 12.4991 42.3816 21.0035 39.957C22.7476 39.4587 23.7691 37.6066 23.2874 35.8127C22.814 34.0604 21.0284 32.9724 19.2511 33.479C7.91448 36.7014 0 47.3731 0 59.4327C0 74.2819 11.8097 86.3662 26.3187 86.3662C35.5372 86.3662 43.9256 81.5575 48.759 73.5103C49.7059 71.9323 49.2241 69.856 47.6793 68.8843L47.6877 68.8918Z" fill="url(#paint0_linear_142_227)"/>
</g>
<g id="Vector_2">
<path d="M57.255 59.0833L64.2396 75.0708C64.6798 76.0924 65.4854 76.8648 66.4986 77.2467C69.829 78.5258 73.0265 75.021 71.5731 71.6657L63.2015 52.489C62.5537 51.0024 61.1169 50.0473 59.5389 50.0473H44.6897C44.0004 50.0473 43.444 49.4909 43.444 48.8016V38.3871C43.444 37.8805 43.7513 37.4237 44.2163 37.2327C45.1548 36.8424 45.6697 37.6148 46.4172 38.3789C48.0699 40.0648 48.3856 39.5832 64.4644 39.5915C66.6819 39.5915 68.4841 37.7311 68.4841 35.4472C68.4841 33.1633 66.6819 31.303 64.4644 31.303C50.5366 31.303 51.0601 31.4608 50.5366 30.9292C40.8441 21.0047 41.3509 21.4202 40.5784 20.9967C36.8493 19.3938 33.6602 22.3504 33.6602 25.7888V51.5264C33.6602 55.272 36.6251 58.32 40.2794 58.32H56.1092C56.6075 58.32 57.0561 58.6107 57.2554 59.0675L57.255 59.0833Z" fill="black"/>
<path d="M57.255 59.0833L64.2396 75.0708C64.6798 76.0924 65.4854 76.8648 66.4986 77.2467C69.829 78.5258 73.0265 75.021 71.5731 71.6657L63.2015 52.489C62.5537 51.0024 61.1169 50.0473 59.5389 50.0473H44.6897C44.0004 50.0473 43.444 49.4909 43.444 48.8016V38.3871C43.444 37.8805 43.7513 37.4237 44.2163 37.2327C45.1548 36.8424 45.6697 37.6148 46.4172 38.3789C48.0699 40.0648 48.3856 39.5832 64.4644 39.5915C66.6819 39.5915 68.4841 37.7311 68.4841 35.4472C68.4841 33.1633 66.6819 31.303 64.4644 31.303C50.5366 31.303 51.0601 31.4608 50.5366 30.9292C40.8441 21.0047 41.3509 21.4202 40.5784 20.9967C36.8493 19.3938 33.6602 22.3504 33.6602 25.7888V51.5264C33.6602 55.272 36.6251 58.32 40.2794 58.32H56.1092C56.6075 58.32 57.0561 58.6107 57.2554 59.0675L57.255 59.0833Z" fill="url(#paint1_linear_142_227)"/>
</g>
<g id="Vector_3">
<path d="M32.8047 6.16238C32.8047 9.55921 35.4956 12.3248 38.8011 12.3248C42.1065 12.3248 44.7974 9.55912 44.7974 6.16238C44.7974 2.76564 42.1065 0 38.8011 0C35.4956 0 32.8047 2.76564 32.8047 6.16238Z" fill="black"/>
<path d="M32.8047 6.16238C32.8047 9.55921 35.4956 12.3248 38.8011 12.3248C42.1065 12.3248 44.7974 9.55912 44.7974 6.16238C44.7974 2.76564 42.1065 0 38.8011 0C35.4956 0 32.8047 2.76564 32.8047 6.16238Z" fill="url(#paint2_linear_142_227)"/>
</g>
</g>
</g>
<defs>
<linearGradient id="paint0_linear_142_227" x1="24.622" y1="33.3542" x2="24.622" y2="86.3662" gradientUnits="userSpaceOnUse">
<stop stop-color="#2D2D2D"/>
<stop offset="1" stop-color="#929292"/>
</linearGradient>
<linearGradient id="paint1_linear_142_227" x1="52.7967" y1="20.5488" x2="52.7967" y2="77.5164" gradientUnits="userSpaceOnUse">
<stop stop-color="#2D2D2D"/>
<stop offset="1" stop-color="#929292"/>
</linearGradient>
<linearGradient id="paint2_linear_142_227" x1="38.8011" y1="0" x2="38.8011" y2="12.3248" gradientUnits="userSpaceOnUse">
<stop stop-color="#2D2D2D"/>
<stop offset="1" stop-color="#929292"/>
</linearGradient>
</defs>
</svg>
