<svg width="189" height="164" viewBox="0 0 189 164" fill="none" xmlns="http://www.w3.org/2000/svg">
<g id="Group">
<g id="Vector">
<path d="M185.619 157.771H2.83641C1.26979 157.771 0 159.039 0 160.607C0 162.175 1.26974 163.443 2.83641 163.443H185.619C187.187 163.443 188.455 162.175 188.455 160.607C188.455 159.04 187.187 157.771 185.619 157.771Z" fill="black"/>
<path d="M185.619 157.771H2.83641C1.26979 157.771 0 159.039 0 160.607C0 162.175 1.26974 163.443 2.83641 163.443H185.619C187.187 163.443 188.455 162.175 188.455 160.607C188.455 159.04 187.187 157.771 185.619 157.771Z" fill="url(#paint0_linear_94_1117)"/>
</g>
<g id="Vector_2">
<path d="M6.28785 145.127H164.17C165.853 145.127 167.217 143.763 167.217 142.08V56.2542H158.291H6.28785C4.60535 56.2542 3.24121 57.6182 3.24121 59.3008V142.08C3.24185 143.764 4.60587 145.128 6.28851 145.128L6.28785 145.127ZM8.69679 81.4542C8.69679 79.7704 10.0608 78.4076 11.7434 78.4076C19.2663 78.4076 25.3881 72.2844 25.3881 64.7596C25.3881 63.0758 26.7508 61.713 28.4347 61.713H141.992C143.676 61.713 145.039 63.0757 145.039 64.7596C145.039 72.2844 151.162 78.4076 158.687 78.4076C160.371 78.4076 161.734 79.7703 161.734 81.4542V119.878C161.734 121.562 160.371 122.925 158.687 122.925C151.162 122.925 145.039 129.048 145.039 136.573C145.039 138.256 143.676 139.619 141.992 139.619H28.4364C26.7526 139.619 25.3897 138.257 25.3897 136.573C25.3897 129.048 19.2679 122.925 11.7451 122.925C10.0626 122.925 8.69842 121.562 8.69842 119.878L8.69679 81.4542Z" fill="black"/>
<path d="M6.28785 145.127H164.17C165.853 145.127 167.217 143.763 167.217 142.08V56.2542H158.291H6.28785C4.60535 56.2542 3.24121 57.6182 3.24121 59.3008V142.08C3.24185 143.764 4.60587 145.128 6.28851 145.128L6.28785 145.127ZM8.69679 81.4542C8.69679 79.7704 10.0608 78.4076 11.7434 78.4076C19.2663 78.4076 25.3881 72.2844 25.3881 64.7596C25.3881 63.0758 26.7508 61.713 28.4347 61.713H141.992C143.676 61.713 145.039 63.0757 145.039 64.7596C145.039 72.2844 151.162 78.4076 158.687 78.4076C160.371 78.4076 161.734 79.7703 161.734 81.4542V119.878C161.734 121.562 160.371 122.925 158.687 122.925C151.162 122.925 145.039 129.048 145.039 136.573C145.039 138.256 143.676 139.619 141.992 139.619H28.4364C26.7526 139.619 25.3897 138.257 25.3897 136.573C25.3897 129.048 19.2679 122.925 11.7451 122.925C10.0626 122.925 8.69842 121.562 8.69842 119.878L8.69679 81.4542Z" fill="url(#paint1_linear_94_1117)"/>
</g>
<g id="Vector_3">
<path d="M85.2133 124.181C94.9934 124.181 102.952 113.633 102.952 100.667C102.952 87.7011 94.9924 77.1533 85.2133 77.1533C75.4332 77.1533 67.4766 87.7011 67.4766 100.667C67.4766 113.633 75.4326 124.181 85.2133 124.181ZM82.1305 86.6912L82.119 85.8082C82.098 84.1244 83.4429 82.7438 85.1267 82.7195C86.7659 82.7226 88.1911 84.0465 88.2121 85.7271L88.2249 86.67C91.5925 87.9066 94.0148 91.1164 94.0148 94.909C94.0148 96.5928 92.652 97.9556 90.9681 97.9556C89.2843 97.9556 87.9215 96.5929 87.9215 94.909C87.9215 93.415 86.7046 92.1982 85.2113 92.1982C83.7173 92.1982 82.5005 93.415 82.5005 94.909C82.5005 96.4023 83.7173 97.6198 85.2139 97.6198C90.0698 97.6198 94.0211 101.568 94.0211 106.424C94.0211 110.192 91.6308 113.388 88.2961 114.642L88.3089 115.525C88.3324 117.207 86.9882 118.59 85.3037 118.614H85.2622C83.5988 118.614 82.2393 117.278 82.2156 115.609L82.2022 114.662C78.8346 113.425 76.4136 110.216 76.4136 106.424C76.4136 104.74 77.7764 103.377 79.4602 103.377C81.1441 103.377 82.5069 104.74 82.5069 106.424C82.5069 107.917 83.7237 109.134 85.2177 109.134C86.7111 109.134 87.9285 107.917 87.9285 106.424C87.9285 104.93 86.7117 103.713 85.2151 103.713C80.3592 103.713 76.4079 99.7649 76.4079 94.9091C76.406 91.1412 78.7958 87.945 82.1303 86.6911L82.1305 86.6912Z" fill="black"/>
<path d="M85.2133 124.181C94.9934 124.181 102.952 113.633 102.952 100.667C102.952 87.7011 94.9924 77.1533 85.2133 77.1533C75.4332 77.1533 67.4766 87.7011 67.4766 100.667C67.4766 113.633 75.4326 124.181 85.2133 124.181ZM82.1305 86.6912L82.119 85.8082C82.098 84.1244 83.4429 82.7438 85.1267 82.7195C86.7659 82.7226 88.1911 84.0465 88.2121 85.7271L88.2249 86.67C91.5925 87.9066 94.0148 91.1164 94.0148 94.909C94.0148 96.5928 92.652 97.9556 90.9681 97.9556C89.2843 97.9556 87.9215 96.5929 87.9215 94.909C87.9215 93.415 86.7046 92.1982 85.2113 92.1982C83.7173 92.1982 82.5005 93.415 82.5005 94.909C82.5005 96.4023 83.7173 97.6198 85.2139 97.6198C90.0698 97.6198 94.0211 101.568 94.0211 106.424C94.0211 110.192 91.6308 113.388 88.2961 114.642L88.3089 115.525C88.3324 117.207 86.9882 118.59 85.3037 118.614H85.2622C83.5988 118.614 82.2393 117.278 82.2156 115.609L82.2022 114.662C78.8346 113.425 76.4136 110.216 76.4136 106.424C76.4136 104.74 77.7764 103.377 79.4602 103.377C81.1441 103.377 82.5069 104.74 82.5069 106.424C82.5069 107.917 83.7237 109.134 85.2177 109.134C86.7111 109.134 87.9285 107.917 87.9285 106.424C87.9285 104.93 86.7117 103.713 85.2151 103.713C80.3592 103.713 76.4079 99.7649 76.4079 94.9091C76.406 91.1412 78.7958 87.945 82.1303 86.6911L82.1305 86.6912Z" fill="url(#paint2_linear_94_1117)"/>
</g>
<g id="Vector_4">
<path d="M31.2458 133.526H139.18C140.495 125.076 147.189 118.382 155.64 117.066L155.64 84.2661C147.19 82.9511 140.496 76.2566 139.18 67.8064L31.2465 67.807C29.9315 76.2569 23.2401 82.9514 14.79 84.2667V117.067C23.2404 118.381 29.9319 125.076 31.2465 133.527L31.2458 133.526ZM85.2128 71.0585C98.3548 71.0585 109.044 84.3408 109.044 100.667C109.044 116.993 98.354 130.276 85.2128 130.276C72.0735 130.276 61.3828 116.993 61.3828 100.667C61.3828 84.3408 72.0733 71.0585 85.2128 71.0585Z" fill="black"/>
<path d="M31.2458 133.526H139.18C140.495 125.076 147.189 118.382 155.64 117.066L155.64 84.2661C147.19 82.9511 140.496 76.2566 139.18 67.8064L31.2465 67.807C29.9315 76.2569 23.2401 82.9514 14.79 84.2667V117.067C23.2404 118.381 29.9319 125.076 31.2465 133.527L31.2458 133.526ZM85.2128 71.0585C98.3548 71.0585 109.044 84.3408 109.044 100.667C109.044 116.993 98.354 130.276 85.2128 130.276C72.0735 130.276 61.3828 116.993 61.3828 100.667C61.3828 84.3408 72.0733 71.0585 85.2128 71.0585Z" fill="url(#paint3_linear_94_1117)"/>
</g>
<g id="Vector_5">
<path d="M116.452 50.1594H155.222C155.252 49.7994 155.29 49.442 155.338 49.0795L51.8873 18.3228C48.2068 26.038 39.9175 30.5454 31.4072 29.4089L25.2363 50.1597H75.0444C81.4777 39.2844 92.6148 33.8011 102.699 36.8215C108.898 38.657 113.802 43.4734 116.45 50.1597L116.452 50.1594Z" fill="black"/>
<path d="M116.452 50.1594H155.222C155.252 49.7994 155.29 49.442 155.338 49.0795L51.8873 18.3228C48.2068 26.038 39.9175 30.5454 31.4072 29.4089L25.2363 50.1597H75.0444C81.4777 39.2844 92.6148 33.8011 102.699 36.8215C108.898 38.657 113.802 43.4734 116.45 50.1597L116.452 50.1594Z" fill="url(#paint4_linear_94_1117)"/>
</g>
<g id="Vector_6">
<path d="M26.3695 24.9788C26.8645 23.3148 28.6171 22.4879 30.287 22.9638C37.4666 25.0102 44.9995 20.8957 47.1496 13.7291C47.6319 12.1192 49.3069 11.2208 50.9372 11.6821L159.77 44.0388C161.373 44.5179 162.293 46.2018 161.826 47.8117C161.596 48.603 161.456 49.3853 161.366 50.1595H170.264C171.947 50.1595 173.311 51.5235 173.311 53.2061V87.0095L184.647 48.9151C185.126 47.3026 184.217 45.6086 182.605 45.1288C161.929 38.9738 30.9151 0.0276917 31.2478 0.127181C29.6347 -0.352551 27.9381 0.566774 27.4591 2.17991L13.2041 50.1596H18.8813L26.3695 24.9788Z" fill="black"/>
<path d="M26.3695 24.9788C26.8645 23.3148 28.6171 22.4879 30.287 22.9638C37.4666 25.0102 44.9995 20.8957 47.1496 13.7291C47.6319 12.1192 49.3069 11.2208 50.9372 11.6821L159.77 44.0388C161.373 44.5179 162.293 46.2018 161.826 47.8117C161.596 48.603 161.456 49.3853 161.366 50.1595H170.264C171.947 50.1595 173.311 51.5235 173.311 53.2061V87.0095L184.647 48.9151C185.126 47.3026 184.217 45.6086 182.605 45.1288C161.929 38.9738 30.9151 0.0276917 31.2478 0.127181C29.6347 -0.352551 27.9381 0.566774 27.4591 2.17991L13.2041 50.1596H18.8813L26.3695 24.9788Z" fill="url(#paint5_linear_94_1117)"/>
</g>
<g id="Vector_7">
<path d="M82.3965 50.1591H95.4926L95.515 50.0789C95.9609 48.4543 97.6389 47.5202 99.2636 47.9542C100.356 48.2568 101.1 49.1335 101.36 50.1593H109.769C107.722 46.4043 104.646 43.7501 100.968 42.6612C94.5656 40.7512 87.434 43.7831 82.3966 50.1593L82.3965 50.1591Z" fill="black"/>
<path d="M82.3965 50.1591H95.4926L95.515 50.0789C95.9609 48.4543 97.6389 47.5202 99.2636 47.9542C100.356 48.2568 101.1 49.1335 101.36 50.1593H109.769C107.722 46.4043 104.646 43.7501 100.968 42.6612C94.5656 40.7512 87.434 43.7831 82.3966 50.1593L82.3965 50.1591Z" fill="url(#paint6_linear_94_1117)"/>
</g>
</g>
<defs>
<linearGradient id="paint0_linear_94_1117" x1="94.2275" y1="157.771" x2="94.2275" y2="163.443" gradientUnits="userSpaceOnUse">
<stop stop-color="#2D2D2D"/>
<stop offset="1" stop-color="#929292"/>
</linearGradient>
<linearGradient id="paint1_linear_94_1117" x1="85.229" y1="56.2542" x2="85.229" y2="145.128" gradientUnits="userSpaceOnUse">
<stop stop-color="#2D2D2D"/>
<stop offset="1" stop-color="#929292"/>
</linearGradient>
<linearGradient id="paint2_linear_94_1117" x1="85.2141" y1="77.1533" x2="85.2141" y2="124.181" gradientUnits="userSpaceOnUse">
<stop stop-color="#2D2D2D"/>
<stop offset="1" stop-color="#929292"/>
</linearGradient>
<linearGradient id="paint3_linear_94_1117" x1="85.2151" y1="67.8064" x2="85.2151" y2="133.527" gradientUnits="userSpaceOnUse">
<stop stop-color="#2D2D2D"/>
<stop offset="1" stop-color="#929292"/>
</linearGradient>
<linearGradient id="paint4_linear_94_1117" x1="90.287" y1="18.3228" x2="90.287" y2="50.1597" gradientUnits="userSpaceOnUse">
<stop stop-color="#2D2D2D"/>
<stop offset="1" stop-color="#929292"/>
</linearGradient>
<linearGradient id="paint5_linear_94_1117" x1="98.9894" y1="0" x2="98.9894" y2="87.0095" gradientUnits="userSpaceOnUse">
<stop stop-color="#2D2D2D"/>
<stop offset="1" stop-color="#929292"/>
</linearGradient>
<linearGradient id="paint6_linear_94_1117" x1="96.0829" y1="42.0955" x2="96.0829" y2="50.1593" gradientUnits="userSpaceOnUse">
<stop stop-color="#2D2D2D"/>
<stop offset="1" stop-color="#929292"/>
</linearGradient>
</defs>
</svg>
