<svg width="88" height="88" viewBox="0 0 88 88" fill="none" xmlns="http://www.w3.org/2000/svg">
<g id="Group">
<g id="Vector">
<path d="M29.4472 19.5462C28.7655 18.542 27.8457 17.7162 26.7673 17.1398C26.0512 16.6318 25.1567 15.9958 25.1486 15.6391C25.1431 15.4689 25.2245 13.883 29.5893 10.618C30.789 9.71949 31.029 7.98083 30.1163 6.79973C29.2033 5.61864 27.4377 5.38232 26.2377 6.28086C21.6296 9.72679 19.527 12.7522 19.6132 15.794C19.7426 16.9952 20.1662 18.1476 20.8476 19.1522C21.5297 20.1564 22.4488 20.9828 23.5269 21.5601C24.246 22.0684 25.1375 22.7041 25.146 23.0582C25.1512 23.2284 25.0704 24.8144 20.7053 28.0794C19.4995 28.9824 19.2692 30.7213 20.1783 31.8976C21.0909 33.079 22.8569 33.315 24.0566 32.4165C28.6647 28.9706 30.7676 25.9451 30.681 22.9033C30.5526 21.7024 30.1287 20.55 29.4473 19.5462H29.4472Z" fill="black"/>
<path d="M29.4472 19.5462C28.7655 18.542 27.8457 17.7162 26.7673 17.1398C26.0512 16.6318 25.1567 15.9958 25.1486 15.6391C25.1431 15.4689 25.2245 13.883 29.5893 10.618C30.789 9.71949 31.029 7.98083 30.1163 6.79973C29.2033 5.61864 27.4377 5.38232 26.2377 6.28086C21.6296 9.72679 19.527 12.7522 19.6132 15.794C19.7426 16.9952 20.1662 18.1476 20.8476 19.1522C21.5297 20.1564 22.4488 20.9828 23.5269 21.5601C24.246 22.0684 25.1375 22.7041 25.146 23.0582C25.1512 23.2284 25.0704 24.8144 20.7053 28.0794C19.4995 28.9824 19.2692 30.7213 20.1783 31.8976C21.0909 33.079 22.8569 33.315 24.0566 32.4165C28.6647 28.9706 30.7676 25.9451 30.681 22.9033C30.5526 21.7024 30.1287 20.55 29.4473 19.5462H29.4472Z" fill="url(#paint0_linear_142_259)"/>
</g>
<g id="Group_2">
<path id="Vector_2" d="M42 0C18.8 0 0 18.8 0 42C0 65.2 18.8 84 42 84C42.9993 84 43.9798 83.9594 44.9601 83.8796C41.8198 79.3591 40 73.9 40 68.0004C40 52.54 52.5396 40.0004 68 40.0004C73.8997 40.0004 79.36 41.8202 83.8792 44.9605C83.959 43.9803 83.9996 43.0011 83.9996 42.0004C83.9996 18.8004 65.1996 0.00040012 41.9996 0.00040012L42 0ZM46 42C46 44.2091 44.2091 46 42 46H24C21.7909 46 20 44.2091 20 42C20 39.791 21.7909 38 24 38H38V16C38 13.7909 39.791 12 42 12C44.2091 12 46 13.7909 46 16V42Z" fill="url(#paint1_linear_142_259)"/>
<path id="Vector_3" d="M68.001 48C56.9548 48 48.001 56.9547 48.001 68C48.001 79.0453 56.9548 88 68.001 88C79.0472 88 88.001 79.0453 88.001 68C88.001 56.9547 79.0472 48 68.001 48ZM68.001 82C65.7919 82 64.001 80.2091 64.001 78C64.001 75.7909 65.7919 74 68.001 74C70.21 74 72.001 75.7909 72.001 78C72.001 80.2091 70.21 82 68.001 82ZM72.001 68C72.001 70.2091 70.21 72 68.001 72C65.7919 72 64.001 70.2091 64.001 68V58C64.001 55.7909 65.7919 54 68.001 54C70.21 54 72.001 55.7909 72.001 58V68Z" fill="url(#paint2_linear_142_259)"/>
</g>
</g>
<defs>
<linearGradient id="paint0_linear_142_259" x1="25.1471" y1="5.73486" x2="25.1471" y2="32.9626" gradientUnits="userSpaceOnUse">
<stop stop-color="#2D2D2D"/>
<stop offset="1" stop-color="#929292"/>
</linearGradient>
<linearGradient id="paint1_linear_142_259" x1="41.9998" y1="0" x2="41.9998" y2="84" gradientUnits="userSpaceOnUse">
<stop stop-color="#2D2D2D"/>
<stop offset="1" stop-color="#929292"/>
</linearGradient>
<linearGradient id="paint2_linear_142_259" x1="68.001" y1="48" x2="68.001" y2="88" gradientUnits="userSpaceOnUse">
<stop stop-color="#2D2D2D"/>
<stop offset="1" stop-color="#929292"/>
</linearGradient>
</defs>
</svg>
