<svg width="179" height="167" viewBox="0 0 179 167" fill="none" xmlns="http://www.w3.org/2000/svg">
<g id="Group">
<g id="Vector">
<path d="M168.449 -0.00732422H37.161C31.8205 -0.00732422 27.5926 4.22058 27.5926 9.56109V70.0868H9.56841C4.2279 69.8643 0 74.0922 0 79.4327V156.648C0 161.988 4.2279 166.216 9.56841 166.216H140.856C146.196 166.216 150.424 161.988 150.424 156.648V96.1218H168.449C173.789 96.1218 178.017 91.8939 178.017 86.5534V9.33857C178.017 4.22058 173.789 -0.00732422 168.449 -0.00732422ZM143.971 156.648C143.971 158.428 142.636 159.763 140.856 159.763H9.56841C7.78824 159.763 6.45311 158.428 6.45311 156.648V118.151H144.194V156.648H143.971ZM143.971 89.6687H6.45311V79.4327C6.45311 77.6526 7.78824 76.3174 9.56841 76.3174H140.856C142.636 76.3174 143.971 77.6526 143.971 79.4327V89.6687ZM171.564 86.5534C171.564 88.3336 170.229 89.6687 168.449 89.6687H150.424V79.4327C150.424 74.0922 146.196 69.8643 140.856 69.8643H34.0457V48.0573H171.786V86.5534H171.564ZM171.564 19.7971H34.0457V9.56109C34.0457 7.78092 35.3809 6.44579 37.161 6.44579H168.449C170.229 6.44579 171.564 7.78092 171.564 9.56109V19.7971Z" fill="black"/>
<path d="M168.449 -0.00732422H37.161C31.8205 -0.00732422 27.5926 4.22058 27.5926 9.56109V70.0868H9.56841C4.2279 69.8643 0 74.0922 0 79.4327V156.648C0 161.988 4.2279 166.216 9.56841 166.216H140.856C146.196 166.216 150.424 161.988 150.424 156.648V96.1218H168.449C173.789 96.1218 178.017 91.8939 178.017 86.5534V9.33857C178.017 4.22058 173.789 -0.00732422 168.449 -0.00732422ZM143.971 156.648C143.971 158.428 142.636 159.763 140.856 159.763H9.56841C7.78824 159.763 6.45311 158.428 6.45311 156.648V118.151H144.194V156.648H143.971ZM143.971 89.6687H6.45311V79.4327C6.45311 77.6526 7.78824 76.3174 9.56841 76.3174H140.856C142.636 76.3174 143.971 77.6526 143.971 79.4327V89.6687ZM171.564 86.5534C171.564 88.3336 170.229 89.6687 168.449 89.6687H150.424V79.4327C150.424 74.0922 146.196 69.8643 140.856 69.8643H34.0457V48.0573H171.786V86.5534H171.564ZM171.564 19.7971H34.0457V9.56109C34.0457 7.78092 35.3809 6.44579 37.161 6.44579H168.449C170.229 6.44579 171.564 7.78092 171.564 9.56109V19.7971Z" fill="url(#paint0_linear_94_1103)"/>
</g>
<g id="Vector_2">
<path d="M127.513 130.39V146.634C127.513 148.414 126.178 149.75 124.398 149.75H102.814C101.033 149.75 99.6982 148.414 99.6982 146.634V130.39C99.6982 128.61 101.033 127.275 102.814 127.275H124.398C126.178 127.275 127.513 128.61 127.513 130.39Z" fill="black"/>
<path d="M127.513 130.39V146.634C127.513 148.414 126.178 149.75 124.398 149.75H102.814C101.033 149.75 99.6982 148.414 99.6982 146.634V130.39C99.6982 128.61 101.033 127.275 102.814 127.275H124.398C126.178 127.275 127.513 128.61 127.513 130.39Z" fill="url(#paint1_linear_94_1103)"/>
</g>
</g>
<defs>
<linearGradient id="paint0_linear_94_1103" x1="89.0085" y1="-0.00732422" x2="89.0085" y2="166.216" gradientUnits="userSpaceOnUse">
<stop stop-color="#2D2D2D"/>
<stop offset="1" stop-color="#929292"/>
</linearGradient>
<linearGradient id="paint1_linear_94_1103" x1="113.606" y1="127.275" x2="113.606" y2="149.75" gradientUnits="userSpaceOnUse">
<stop stop-color="#2D2D2D"/>
<stop offset="1" stop-color="#929292"/>
</linearGradient>
</defs>
</svg>
