<svg width="48" height="48" viewBox="0 0 48 48" fill="none" xmlns="http://www.w3.org/2000/svg">
<g id="Group 346">
<path id="Vector" fill-rule="evenodd" clip-rule="evenodd" d="M23.0934 0.374987C23.5934 -0.124996 24.4058 -0.124996 24.9058 0.374987L47.625 23.0911C47.875 23.3411 48 23.6702 48 23.9973V41.5176C48 42.2259 47.4271 42.8009 46.7188 42.8009C46.0104 42.8009 45.4354 42.2259 45.4354 41.5176V24.5289L24.0003 3.09583L2.56512 24.5302V45.4335H16.5567V33.0983C16.5567 32.39 17.1317 31.8151 17.84 31.8151H30.1609C30.8693 31.8151 31.4443 32.3901 31.4443 33.0983V45.4335H41.5047C42.2131 45.4335 42.7881 46.0085 42.7881 46.7147C42.7881 47.423 42.2131 47.998 41.5047 47.998H30.1607C29.4524 47.998 28.8774 47.425 28.8774 46.7147V34.3795H19.1209V46.7147C19.1209 47.423 18.5459 47.998 17.8376 47.998H1.28334C0.574979 47.998 0 47.425 0 46.7147V23.9963C0 23.6401 0.145831 23.3151 0.383334 23.0839L23.0934 0.374987ZM46.6889 48C47.4327 48 47.9994 47.4313 47.9994 46.7167C47.9994 46.0084 47.4264 45.4355 46.7181 45.4355C45.9744 45.4355 45.4077 46.0042 45.4077 46.7167C45.4077 47.425 45.9827 48 46.6889 48Z" fill="white"/>
</g>
</svg>
