<svg width="87" height="77" viewBox="0 0 87 77" fill="none" xmlns="http://www.w3.org/2000/svg">
<g id="Group">
<g id="Vector">
<path d="M58.0006 19.2503C60.5641 19.2503 63.0231 18.2361 64.8362 16.4314C66.6487 14.6257 67.6674 12.1776 67.6674 9.62517C67.6674 7.07275 66.6487 4.62429 64.8362 2.81898C63.0228 1.01428 60.5641 0 58.0006 0C55.4372 0 52.9781 1.01428 51.165 2.81898C49.3525 4.62459 48.3338 7.07275 48.3338 9.62517C48.3338 12.1776 49.3525 14.6261 51.165 16.4314C52.9784 18.2361 55.4375 19.2503 58.0006 19.2503ZM19.3329 28.8749C19.3329 26.3225 18.3149 23.874 16.5018 22.0693C14.6893 20.2637 12.2301 19.2503 9.66677 19.2503C7.10241 19.2503 4.64427 20.264 2.83116 22.0693C1.01866 23.874 0 26.3226 0 28.8749C0 31.4282 1.01866 33.8756 2.83116 35.6811C4.64458 37.4858 7.10279 38.5001 9.66677 38.5001C12.2302 38.5001 14.6893 37.4858 16.5018 35.6811C18.3152 33.8755 19.3329 31.4279 19.3329 28.8749ZM77.3329 19.2503C74.7695 19.2503 72.3104 20.264 70.4982 22.0693C68.6847 23.874 67.667 26.3226 67.667 28.8749C67.667 31.4282 68.6851 33.8756 70.4982 35.6811C72.3107 37.4858 74.7698 38.5001 77.3329 38.5001C79.8973 38.5001 82.3552 37.4858 84.1685 35.6811C85.9813 33.8755 87 31.4279 87 28.8749C87 26.3225 85.9813 23.874 84.1688 22.0696C82.3554 20.2639 79.8972 19.2506 77.3332 19.2506L77.3329 19.2503ZM29.0006 19.2503C31.5641 19.2503 34.0231 18.2361 35.8362 16.4314C37.6487 14.6257 38.6674 12.1776 38.6674 9.62517C38.6674 7.07275 37.6487 4.62429 35.8362 2.81898C34.0228 1.01428 31.5641 0 29.0006 0C26.4372 0 23.9781 1.01428 22.165 2.81898C20.3525 4.62459 19.3338 7.07275 19.3338 9.62517C19.3338 12.1776 20.3525 14.6261 22.165 16.4314C23.9784 18.2361 26.4375 19.2503 29.0006 19.2503ZM43.5006 24.0625C39.5835 24.0634 35.7599 25.2515 32.5371 27.4679C29.3151 29.6852 26.8462 32.8256 25.4594 36.4724C24.6801 38.5116 23.2391 40.2323 21.3643 41.3621C18.1325 43.3086 15.5464 46.1582 13.9298 49.5573C12.3131 52.9565 11.7369 56.7545 12.2726 60.4775C12.932 65.064 15.2316 69.2601 18.7483 72.295C22.2651 75.33 26.763 77.0009 31.4168 77C34.2586 76.9991 37.0638 76.3562 39.6207 75.1196C42.0724 73.948 44.9262 73.948 47.3775 75.1205C49.9343 76.357 52.7389 76.9994 55.5814 77C60.2349 77.0009 64.7324 75.3306 68.2483 72.2956C71.7651 69.2614 74.0644 65.0664 74.7247 60.4796C75.2613 56.7565 74.685 52.9586 73.0684 49.5587C71.4517 46.1597 68.8665 43.309 65.6348 41.3619C63.7608 40.2331 62.3198 38.5124 61.5411 36.4732C60.1543 32.8258 57.6857 29.6845 54.4625 27.4687C51.2406 25.2514 47.4165 24.0632 43.499 24.0623L43.5006 24.0625Z" fill="black"/>
<path d="M58.0006 19.2503C60.5641 19.2503 63.0231 18.2361 64.8362 16.4314C66.6487 14.6257 67.6674 12.1776 67.6674 9.62517C67.6674 7.07275 66.6487 4.62429 64.8362 2.81898C63.0228 1.01428 60.5641 0 58.0006 0C55.4372 0 52.9781 1.01428 51.165 2.81898C49.3525 4.62459 48.3338 7.07275 48.3338 9.62517C48.3338 12.1776 49.3525 14.6261 51.165 16.4314C52.9784 18.2361 55.4375 19.2503 58.0006 19.2503ZM19.3329 28.8749C19.3329 26.3225 18.3149 23.874 16.5018 22.0693C14.6893 20.2637 12.2301 19.2503 9.66677 19.2503C7.10241 19.2503 4.64427 20.264 2.83116 22.0693C1.01866 23.874 0 26.3226 0 28.8749C0 31.4282 1.01866 33.8756 2.83116 35.6811C4.64458 37.4858 7.10279 38.5001 9.66677 38.5001C12.2302 38.5001 14.6893 37.4858 16.5018 35.6811C18.3152 33.8755 19.3329 31.4279 19.3329 28.8749ZM77.3329 19.2503C74.7695 19.2503 72.3104 20.264 70.4982 22.0693C68.6847 23.874 67.667 26.3226 67.667 28.8749C67.667 31.4282 68.6851 33.8756 70.4982 35.6811C72.3107 37.4858 74.7698 38.5001 77.3329 38.5001C79.8973 38.5001 82.3552 37.4858 84.1685 35.6811C85.9813 33.8755 87 31.4279 87 28.8749C87 26.3225 85.9813 23.874 84.1688 22.0696C82.3554 20.2639 79.8972 19.2506 77.3332 19.2506L77.3329 19.2503ZM29.0006 19.2503C31.5641 19.2503 34.0231 18.2361 35.8362 16.4314C37.6487 14.6257 38.6674 12.1776 38.6674 9.62517C38.6674 7.07275 37.6487 4.62429 35.8362 2.81898C34.0228 1.01428 31.5641 0 29.0006 0C26.4372 0 23.9781 1.01428 22.165 2.81898C20.3525 4.62459 19.3338 7.07275 19.3338 9.62517C19.3338 12.1776 20.3525 14.6261 22.165 16.4314C23.9784 18.2361 26.4375 19.2503 29.0006 19.2503ZM43.5006 24.0625C39.5835 24.0634 35.7599 25.2515 32.5371 27.4679C29.3151 29.6852 26.8462 32.8256 25.4594 36.4724C24.6801 38.5116 23.2391 40.2323 21.3643 41.3621C18.1325 43.3086 15.5464 46.1582 13.9298 49.5573C12.3131 52.9565 11.7369 56.7545 12.2726 60.4775C12.932 65.064 15.2316 69.2601 18.7483 72.295C22.2651 75.33 26.763 77.0009 31.4168 77C34.2586 76.9991 37.0638 76.3562 39.6207 75.1196C42.0724 73.948 44.9262 73.948 47.3775 75.1205C49.9343 76.357 52.7389 76.9994 55.5814 77C60.2349 77.0009 64.7324 75.3306 68.2483 72.2956C71.7651 69.2614 74.0644 65.0664 74.7247 60.4796C75.2613 56.7565 74.685 52.9586 73.0684 49.5587C71.4517 46.1597 68.8665 43.309 65.6348 41.3619C63.7608 40.2331 62.3198 38.5124 61.5411 36.4732C60.1543 32.8258 57.6857 29.6845 54.4625 27.4687C51.2406 25.2514 47.4165 24.0632 43.499 24.0623L43.5006 24.0625Z" fill="url(#paint0_linear_142_266)"/>
</g>
</g>
<defs>
<linearGradient id="paint0_linear_142_266" x1="43.5" y1="0" x2="43.5" y2="77" gradientUnits="userSpaceOnUse">
<stop stop-color="#2D2D2D"/>
<stop offset="1" stop-color="#929292"/>
</linearGradient>
</defs>
</svg>
