<svg width="83" height="82" viewBox="0 0 83 82" fill="none" xmlns="http://www.w3.org/2000/svg">
<g id="Group">
<g id="Vector">
<path d="M0.88401 32.4303C-0.29425 37.9974 -0.29425 43.7443 0.88401 49.3117C4.8927 67.9842 22.1218 81.739 41.5073 81.7422C67.3366 81.7464 87.4536 57.5105 82.1447 32.4311C78.6099 16.0262 64.7968 3.11991 47.9711 0.501704C42.4552 -0.356592 36.8204 -0.111683 31.4028 1.22142C29.941 1.58224 29.0254 3.08711 29.3919 4.52627C29.7587 5.96534 31.2869 6.8668 32.7487 6.50599C37.4431 5.35236 42.3252 5.14097 47.1035 5.88461C61.6808 8.15329 73.651 19.3296 76.7247 33.5405C81.3263 55.2824 63.9035 76.2967 41.5057 76.2926C24.7116 76.2898 9.78224 64.377 6.30169 48.2018C5.27745 43.3624 5.27845 38.3666 6.30461 33.5274C6.60786 32.0737 5.62708 30.609 4.15044 30.3105C2.67378 30.0119 1.18608 30.9775 0.882858 32.431L0.88401 32.4303Z" fill="black"/>
<path d="M0.88401 32.4303C-0.29425 37.9974 -0.29425 43.7443 0.88401 49.3117C4.8927 67.9842 22.1218 81.739 41.5073 81.7422C67.3366 81.7464 87.4536 57.5105 82.1447 32.4311C78.6099 16.0262 64.7968 3.11991 47.9711 0.501704C42.4552 -0.356592 36.8204 -0.111683 31.4028 1.22142C29.941 1.58224 29.0254 3.08711 29.3919 4.52627C29.7587 5.96534 31.2869 6.8668 32.7487 6.50599C37.4431 5.35236 42.3252 5.14097 47.1035 5.88461C61.6808 8.15329 73.651 19.3296 76.7247 33.5405C81.3263 55.2824 63.9035 76.2967 41.5057 76.2926C24.7116 76.2898 9.78224 64.377 6.30169 48.2018C5.27745 43.3624 5.27845 38.3666 6.30461 33.5274C6.60786 32.0737 5.62708 30.609 4.15044 30.3105C2.67378 30.0119 1.18608 30.9775 0.882858 32.431L0.88401 32.4303Z" fill="url(#paint0_linear_94_716)"/>
</g>
<g id="Vector_2">
<path d="M26.4462 16.5462C25.7645 15.542 24.8447 14.7162 23.7663 14.1398C23.0502 13.6318 22.1558 12.9958 22.1476 12.6391C22.1421 12.4689 22.2235 10.883 26.5883 7.618C27.788 6.71949 28.028 4.98083 27.1153 3.79973C26.2024 2.61864 24.4367 2.38232 23.2367 3.28086C18.6286 6.72679 16.526 9.75224 16.6123 12.794C16.7417 13.9952 17.1652 15.1476 17.8466 16.1522C18.5287 17.1564 19.4478 17.9828 20.526 18.5601C21.245 19.0684 22.1366 19.7041 22.145 20.0582C22.1502 20.2284 22.0695 21.8144 17.7043 25.0794C16.4985 25.9824 16.2682 27.7213 17.1773 28.8976C18.0899 30.079 19.856 30.315 21.0556 29.4165C25.6637 25.9706 27.7666 22.9451 27.6801 19.9033C27.5516 18.7024 27.1277 17.55 26.4463 16.5462H26.4462Z" fill="black"/>
<path d="M26.4462 16.5462C25.7645 15.542 24.8447 14.7162 23.7663 14.1398C23.0502 13.6318 22.1558 12.9958 22.1476 12.6391C22.1421 12.4689 22.2235 10.883 26.5883 7.618C27.788 6.71949 28.028 4.98083 27.1153 3.79973C26.2024 2.61864 24.4367 2.38232 23.2367 3.28086C18.6286 6.72679 16.526 9.75224 16.6123 12.794C16.7417 13.9952 17.1652 15.1476 17.8466 16.1522C18.5287 17.1564 19.4478 17.9828 20.526 18.5601C21.245 19.0684 22.1366 19.7041 22.145 20.0582C22.1502 20.2284 22.0695 21.8144 17.7043 25.0794C16.4985 25.9824 16.2682 27.7213 17.1773 28.8976C18.0899 30.079 19.856 30.315 21.0556 29.4165C25.6637 25.9706 27.7666 22.9451 27.6801 19.9033C27.5516 18.7024 27.1277 17.55 26.4463 16.5462H26.4462Z" fill="url(#paint1_linear_94_716)"/>
</g>
<g id="Vector_3">
<path d="M12.6952 14.1396C13.7732 14.7159 14.693 15.5416 15.3747 16.5459C16.0565 17.5498 16.48 18.7022 16.6088 19.9031C16.6951 22.9445 14.5924 25.9699 9.98436 29.4163C8.78468 30.3148 7.01867 30.0788 6.10602 28.8974C5.19304 27.716 5.43304 25.9776 6.63306 25.0791C10.9979 21.8142 11.079 20.2282 11.0734 20.058C11.0653 19.7039 10.1734 19.0682 9.45437 18.5598C8.37666 17.9825 7.45745 17.1561 6.77537 16.1519C6.09396 15.1474 5.67035 13.995 5.54099 12.7938C5.45471 9.7524 7.55733 6.72695 12.1654 3.28061C13.3654 2.3821 15.1311 2.61836 16.0437 3.79949C16.9564 4.98058 16.7167 6.71924 15.5167 7.61776C11.1519 10.8826 11.0708 12.4687 11.0763 12.6389C11.0845 12.9955 11.979 13.6316 12.6952 14.1396Z" fill="black"/>
<path d="M12.6952 14.1396C13.7732 14.7159 14.693 15.5416 15.3747 16.5459C16.0565 17.5498 16.48 18.7022 16.6088 19.9031C16.6951 22.9445 14.5924 25.9699 9.98436 29.4163C8.78468 30.3148 7.01867 30.0788 6.10602 28.8974C5.19304 27.716 5.43304 25.9776 6.63306 25.0791C10.9979 21.8142 11.079 20.2282 11.0734 20.058C11.0653 19.7039 10.1734 19.0682 9.45437 18.5598C8.37666 17.9825 7.45745 17.1561 6.77537 16.1519C6.09396 15.1474 5.67035 13.995 5.54099 12.7938C5.45471 9.7524 7.55733 6.72695 12.1654 3.28061C13.3654 2.3821 15.1311 2.61836 16.0437 3.79949C16.9564 4.98058 16.7167 6.71924 15.5167 7.61776C11.1519 10.8826 11.0708 12.4687 11.0763 12.6389C11.0845 12.9955 11.979 13.6316 12.6952 14.1396Z" fill="url(#paint2_linear_94_716)"/>
</g>
<g id="Vector_4">
<path fill-rule="evenodd" clip-rule="evenodd" d="M60.8915 32.6968H22.1446C17.6225 32.6968 13.8418 36.4186 13.8418 40.871C13.8418 45.3234 17.6225 49.0453 22.1446 49.0453H60.8915C65.4136 49.0453 69.1943 45.3234 69.1943 40.871C69.1943 36.4186 65.4136 32.6968 60.8915 32.6968ZM63.659 40.871C63.658 42.3548 62.3986 43.5947 60.8915 43.5957H27.6801V38.1464H60.8915C62.3986 38.1473 63.658 39.3872 63.659 40.871ZM19.3775 40.871C19.3784 39.3872 20.6382 38.1474 22.145 38.1464V43.5957C20.6382 43.5947 19.3785 42.3548 19.3775 40.871Z" fill="black"/>
<path fill-rule="evenodd" clip-rule="evenodd" d="M60.8915 32.6968H22.1446C17.6225 32.6968 13.8418 36.4186 13.8418 40.871C13.8418 45.3234 17.6225 49.0453 22.1446 49.0453H60.8915C65.4136 49.0453 69.1943 45.3234 69.1943 40.871C69.1943 36.4186 65.4136 32.6968 60.8915 32.6968ZM63.659 40.871C63.658 42.3548 62.3986 43.5947 60.8915 43.5957H27.6801V38.1464H60.8915C62.3986 38.1473 63.658 39.3872 63.659 40.871ZM19.3775 40.871C19.3784 39.3872 20.6382 38.1474 22.145 38.1464V43.5957C20.6382 43.5947 19.3785 42.3548 19.3775 40.871Z" fill="url(#paint3_linear_94_716)"/>
</g>
</g>
<defs>
<linearGradient id="paint0_linear_94_716" x1="41.5002" y1="0" x2="41.5002" y2="81.7422" gradientUnits="userSpaceOnUse">
<stop stop-color="#2D2D2D"/>
<stop offset="1" stop-color="#929292"/>
</linearGradient>
<linearGradient id="paint1_linear_94_716" x1="22.1462" y1="2.73486" x2="22.1462" y2="29.9626" gradientUnits="userSpaceOnUse">
<stop stop-color="#2D2D2D"/>
<stop offset="1" stop-color="#929292"/>
</linearGradient>
<linearGradient id="paint2_linear_94_716" x1="11.0749" y1="2.73462" x2="11.0749" y2="29.9623" gradientUnits="userSpaceOnUse">
<stop stop-color="#2D2D2D"/>
<stop offset="1" stop-color="#929292"/>
</linearGradient>
<linearGradient id="paint3_linear_94_716" x1="41.5181" y1="32.6968" x2="41.5181" y2="49.0453" gradientUnits="userSpaceOnUse">
<stop stop-color="#2D2D2D"/>
<stop offset="1" stop-color="#929292"/>
</linearGradient>
</defs>
</svg>
